<svg xmlns="http://www.w3.org/2000/svg" viewBox="0 0 1024 1024">
  <rect width="1024" height="1024" rx="230" fill="#0E7C66"/>
  <path fill="#F5F3EE" fill-rule="evenodd" d="M0.0,512.0L0.0,0.0L512.0,0.0L1024.0,0.0L1024.0,512.0L1024.0,1024.0L512.0,1024.0L0.0,1024.0L0.0,512.0zM553.5,846.5C592.8,841.1 626.4,830.6 662.0,812.8C698.6,794.5 726.0,774.3 755.0,744.4C803.0,694.8 833.2,632.4 844.7,559.0C847.3,542.5 847.3,488.9 844.7,471.5C830.5,375.6 780.8,293.6 705.0,240.9C690.2,230.6 671.0,220.0 667.1,220.0C662.4,220.0 658.3,222.8 656.0,227.5C654.2,231.3 654.0,233.8 654.0,254.4C654.0,277.2 654.0,277.2 656.6,282.1C658.6,285.7 661.2,288.3 666.9,292.2C687.3,306.2 710.1,327.1 724.4,345.0C739.3,363.7 756.4,392.4 764.1,411.5C770.2,427.0 775.0,442.4 775.0,446.9C775.0,450.9 774.5,451.8 770.2,456.0C766.7,459.3 762.4,461.9 754.5,465.4C738.8,472.3 732.5,474.3 705.5,481.1C677.6,488.1 610.8,505.4 603.6,507.6C600.8,508.4 598.3,509.6 597.8,510.3C597.4,510.9 597.0,516.1 597.0,521.7C597.0,560.8 571.8,594.7 534.7,605.4C499.0,615.8 461.4,601.2 440.2,568.7C431.3,555.1 427.1,540.8 426.4,522.0C426.1,514.7 425.5,510.1 424.7,509.4C423.4,508.2 402.1,502.5 334.8,485.5C289.7,474.0 278.9,470.6 262.8,462.3C247.7,454.6 246.1,450.9 251.1,434.9C259.9,406.6 275.1,377.3 294.4,351.5C305.9,336.2 331.0,310.9 345.0,300.6C371.9,280.8 370.0,284.5 370.0,254.5C370.0,230.2 369.2,226.7 363.5,222.2C359.1,218.7 354.9,219.4 344.1,225.1C284.7,256.7 232.4,315.1 204.0,381.5C176.6,445.2 169.1,515.1 182.7,579.5C196.4,644.8 227.7,702.9 273.9,749.0C330.6,805.5 403.2,840.0 482.0,847.9C496.3,849.3 539.3,848.5 553.5,846.5zM445.5,779.5C380.8,762.7 327.3,726.1 288.7,672.2C269.3,645.0 254.0,611.9 246.0,580.0C241.9,563.5 240.7,555.6 241.2,549.9C242.2,539.9 251.1,532.0 261.4,532.0C269.1,532.0 320.5,545.7 345.0,554.2C380.6,566.7 410.2,587.0 432.4,614.3C459.6,647.9 473.4,688.8 477.1,746.3C478.6,770.4 476.9,776.9 467.6,781.1C462.1,783.6 460.6,783.5 445.5,779.5zM555.5,780.7C546.7,775.7 545.1,769.1 546.9,744.0C550.3,695.4 560.8,659.2 579.9,630.2C604.0,593.7 638.3,567.7 681.9,553.1C708.4,544.2 754.9,532.0 762.4,532.0C773.2,532.0 783.0,541.6 783.0,552.1C783.0,562.5 775.1,593.2 767.4,612.8C734.4,697.0 663.2,759.3 576.6,780.0C561.7,783.6 560.6,783.6 555.5,780.7zM526.5,588.5C530.4,587.7 537.3,585.2 542.0,582.9C548.8,579.5 552.2,577.0 559.0,570.1C573.2,555.9 579.4,541.0 579.4,521.5C579.5,501.2 573.3,486.2 559.0,472.0C544.4,457.4 528.9,451.3 508.6,452.2C480.1,453.5 456.6,471.7 447.3,499.5C444.9,506.6 444.6,509.0 444.6,521.0C444.6,532.9 445.0,535.5 447.3,542.5C456.8,571.2 481.6,589.8 510.5,589.9C515.5,589.9 522.6,589.3 526.5,588.5zM519.5,391.1C524.5,388.9 528.6,384.2 530.0,379.2C531.4,374.0 531.4,193.9 529.9,188.7C528.6,183.9 523.7,178.3 519.2,176.5C511.1,173.1 501.0,176.1 496.2,183.3L493.5,187.4L493.2,282.4L493.0,377.4L495.5,382.6C498.2,388.1 500.7,390.3 506.1,391.8C511.3,393.3 515.1,393.1 519.5,391.1zM454.8,336.8C457.1,335.2 459.6,332.4 460.9,329.8C462.9,325.6 463.0,324.0 463.0,292.4C463.0,273.9 462.6,257.9 462.0,256.0C460.1,249.3 451.2,243.0 443.5,243.0C439.5,243.0 433.5,245.2 430.6,247.8C429.6,248.7 427.9,251.3 426.9,253.5C425.2,257.1 425.0,260.6 425.0,291.5C425.0,322.4 425.2,325.9 426.9,329.5C430.3,336.9 435.9,340.2 444.6,339.7C449.2,339.5 451.8,338.8 454.8,336.8zM589.1,337.7C592.4,335.9 594.2,334.0 596.2,330.1L599.0,324.8L599.0,291.6C599.0,254.5 598.8,253.5 591.7,247.3C583.0,239.6 567.7,242.8 562.9,253.3C561.2,257.2 561.0,260.2 561.0,291.5C561.0,322.4 561.2,325.9 562.9,329.5C567.4,339.3 579.1,342.9 589.1,337.7z"/>
</svg>
